<?xml version="1.0" encoding="UTF-8"?>
<svg id="Layer_2" data-name="Layer 2" xmlns="http://www.w3.org/2000/svg" viewBox="0 0 761.478322541691341 962.705723225697511">
  <defs>
    <style>
      .cls-1 {
        stroke-dasharray: 0 0 3.865757942199707 3.865757942199707;
      }

      .cls-1, .cls-2, .cls-3, .cls-4, .cls-5, .cls-6, .cls-7, .cls-8, .cls-9, .cls-10, .cls-11, .cls-12, .cls-13, .cls-14 {
        fill: none;
      }

      .cls-1, .cls-3, .cls-15, .cls-4, .cls-5, .cls-6, .cls-7, .cls-8, .cls-9, .cls-10, .cls-11, .cls-12, .cls-13, .cls-14 {
        stroke: #000;
        stroke-miterlimit: 10;
      }

      .cls-2, .cls-16 {
        stroke-width: 0px;
      }

      .cls-3 {
        stroke-dasharray: 0 0 3.891026258468628 3.891026258468628;
      }

      .cls-15 {
        fill: #ccc;
      }

      .cls-15, .cls-10 {
        stroke-width: 2px;
      }

      .cls-4 {
        stroke-dasharray: 0 0 3.92310094833374 3.92310094833374;
      }

      .cls-5 {
        stroke-dasharray: 0 0 4.190571784973145 4.190571784973145;
      }

      .cls-6 {
        stroke-dasharray: 0 0 3.850644111633301 3.850644111633301;
      }

      .cls-7 {
        stroke-dasharray: 0 0 3.820871114730835 3.820871114730835;
      }

      .cls-8 {
        stroke-dasharray: 0 0 4.095570087432861 4.095570087432861;
      }

      .cls-9 {
        stroke-dasharray: 0 0 4.276610851287842 4.276610851287842;
      }

      .cls-12 {
        stroke-dasharray: 0 4;
      }

      .cls-13 {
        stroke-dasharray: 0 0 3.946298837661743 3.946298837661743;
      }

      .cls-14 {
        stroke-dasharray: 0 0 3.979607582092285 3.979607582092285;
      }
    </style>
  </defs>
  <g id="Layer_1-2" data-name="Layer 1">
    <rect class="cls-2" y="1.639524966371027" width="761.478322541691341" height="961.066198259326484"/>
    <g>
      <polygon class="cls-16" points="295.484363085170116 177.658911768119651 295.484363085170116 166.287146227410631 520.990263351470276 166.245599847679841 514.656073569029104 175.258996348400615 408.967105775818709 214.301650039000378 295.484363085170116 177.658911768119651"/>
      <path class="cls-15" d="M672.105980177791025,469.052937754109735c-30.455965692442078-145.027882872120244-63.812539945080971-187.086282805328665-94.993445682773199-234.220535624099284-31.181329927298066-47.133828629159325-55.466185158529697-54.929161110980203-55.466185158529697-54.929161110980203l-4.752196212328272-4.978713464610337s9.984575064328965-3.409211903819596,15.787488943169592-3.855459374619386,10.26666115567059-4.017075616409784,12.052075228468311-6.249161349620408c1.785838262421748-2.232085733230633-4.017075616418879-17.408741636509149-11.605827757659426-46.423311030690456-7.588327951660176-29.014145204570013-23.657902986149566-56.243300525939048-42.405387035058084-75.883703706049346C471.974594264569532,22.872488913340931,432.693363714728548,1,399.21504704373001,1c-33.477892481379968,0-55.796628865529783,20.533322311321172-85.704117390911051,42.405811224651188-29.907064335779069,21.872064723718722-42.852058695460073,81.240370114079269-44.637472768268708,87.935778934519476-1.785414072801359,6.695833010038768-7.588327951640167,25.443317058949106-9.374166214060097,30.799983466979029-1.785414072810454,5.356666408040837,12.498746888879396,9.373742024450621,18.747908238519813,9.373742024450621,6.249161349629503,0,10.527113576828924,3.409211903819596,10.527113576828924,3.409211903819596l-2.716086079399247,5.431323779579543c-61.782368466710977,38.699242403521566-91.65507344398975,120.849499233241659-117.454285586591141,190.10014999167106-25.799636332209047,69.250650758438496-46.846228072879967,193.494515259109903-53.635382797348939,240.34074333198987-6.789578914069352,46.846228072869053,12.8996060713107,91.655497633599225,12.8996060713107,91.655497633599225,0,3.394365267427929-2.036958512160709,35.9831563241205-2.036958512160709,40.056649158788787,0,4.073492834690114,42.093607670940401,6.110451346841728,55.672341309500553,8.14740985897879,13.578309448939763,2.036534322542138,12.585563489108608.989884194001206,14.257437016200129-8.826537426226423.678703377639977-5.431323779572267,5.431323779568629-18.330929850872053,12.899606071288872-26.477915520241368,7.468282291731157-8.146985669351125,21.725719307920372-38.698818213890263,21.725719307920372-38.698818213890263,142.574794351550736,2.715661889780677,344.216719469630334-.679127567258547,344.216719469630334-.679127567258547,4.0734928346792,8.826113236620586,18.330929850890243,34.625325379218339,25.12050876496869,40.735776726049153,6.789154724461696,6.110451346830814,10.86264755915181,19.688760795768758,10.86264755915181,23.762677820057434,4.130364374268538,13.338158650702098,4.752620401928652,10.183944181510014,10.183944181508195,10.86264755915181,5.431323779570448.678703377641796,57.030172254379977-6.789154724461696,61.103665089059177-8.146985669358401,4.073492834690114-1.358255134509818.383891597983165-39.914969828711037.383891597983165-39.914969828711037,16.678287126320356-29.730601457589728,20.303835731760046-89.192228562369564-10.151705771069828-234.220111434489809ZM501.779428904088491,169.186456941190045l-53.030488412030536,14.263887672850615s-16.032670538319508,3.221056546130058-25.652018347569538,10.122924914980103c-9.619347809228202,6.901868368850046-13.319129596609855,7.591896942289168-13.319129596609855,7.591896942289168,0,0-.257907283499662,2.919564703839569-5.925504676408309-.840774494588914-5.667173203310085-3.760339198450311-30.332526515639984-16.874047362680358-35.265851691860007-18.484377806460543-4.932900986630557-1.610726102360786-24.665353312331717-5.291537925069861-24.665353312331717-5.291537925069861l-20.225360653728785-4.141358416460207-13.5660079502195-3.220660887540362s-7.069137578830123-2.004909232169666-6.244976601290546-3.128434548239966l209.077807556988773.123611222530599-11.18311631493998,3.004823325709367Z"/>
      <line class="cls-10" x1="127.867994598978839" y1="702.452136712290667" x2="208.66050215200994" y2="715.351780775377847"/>
      <g>
        <line class="cls-11" x1="128.570132726587872" y1="699.078762955436105" x2="130.545138830103497" y2="699.394192642936105"/>
        <line class="cls-8" x1="134.589480871119122" y1="700.039822525748605" x2="205.365481847681622" y2="711.340237564811105"/>
        <line class="cls-11" x1="207.387668126978497" y1="711.663113541373605" x2="209.362643712915997" y2="711.978421158561105"/>
      </g>
      <line class="cls-10" x1="599.723395854018236" y1="716.709638045180327" x2="682.257697797041146" y2="703.27317751452938"/>
      <g>
        <line class="cls-11" x1="599.158664220728497" y1="713.056424088248605" x2="601.132663244165997" y2="712.735135025748605"/>
        <line class="cls-5" x1="605.268771642603497" y1="712.061795181998605" x2="677.650851720728497" y2="700.277981705436105"/>
        <line class="cls-11" x1="679.718966955103497" y1="699.941311783561105" x2="681.692965978540997" y2="699.620022721061105"/>
      </g>
      <path class="cls-10" d="M230.386218468778679,676.652848586110849s-6.194277322400012.033670995719149-9.350633324438604-.913235804910073c-3.156356002071334-.946906800611032-7.89089000515014-42.610806027740182-8.522161205561133-52.711145234310607-.631271200409174-10.100339206590434-1.89381360122934-178.649749716309088-.315635600209134-199.166063729679081,1.578178001029301-20.516314013360898,8.522161205550219-73.227459247671504,24.935212416239665-98.478307264120303,16.413051210680351-25.250848016419695,56.814408036989335-75.436908449100883,61.233306439880835-81.118349252799817"/>
      <path class="cls-10" d="M574.603036362728744,675.973919951220523s9.400660495490229.584104664088954,9.682184889059499-.823517303750123c.281524393580185-1.407621967840896,8.020994460670408-113.728588583569945,7.495651366440143-147.350546615050916-.525343094250275-33.621958031479153,0-140.266606162580501-17.861665204218298-174.939250382538376-17.861665204231031-34.672644219961512-64.304727798851673-104.461014719599916-71.13418802400156-112.341161133230344"/>
      <line class="cls-10" x1="213.708169668580013" y1="637.676350380190343" x2="586.802494685887723" y2="637.676350380190343"/>
      <g>
        <line class="cls-11" x1="525.489413732447247" y1="634.386013931998605" x2="527.489413732447247" y2="634.386013931998605"/>
        <line class="cls-7" x1="531.310275548853497" y1="634.386013931998605" x2="582.892062658228497" y2="634.386013931998605"/>
        <line class="cls-11" x1="584.802524084009747" y1="634.386013931998605" x2="586.802524084009747" y2="634.386013931998605"/>
      </g>
      <g>
        <line class="cls-11" x1="213.708163732447247" y1="634.386013931998605" x2="215.708163732447247" y2="634.386013931998605"/>
        <line class="cls-9" x1="219.984775060572247" y1="634.386013931998605" x2="260.612582677759747" y2="634.386013931998605"/>
        <line class="cls-11" x1="262.750888341822247" y1="634.386013931998605" x2="264.750888341822247" y2="634.386013931998605"/>
      </g>
      <path class="cls-10" d="M524.909352554228462,638.114892353660252s3.425362899281026-54.805806349140767,6.470129919049214-62.798319774950869c0,0-41.104354761439026-11.798472202039193-55.947593976638018-109.99220857851833l-160.992056154929742.000000001258741c-14.843239219600946,98.193736375809749-55.947593981571117,109.992208576009943-55.947593981571117,109.992208576009943,3.044767019409846,7.99251342594107,6.47012991622978,62.798319775230993,6.47012991622978,62.798319775230993"/>
      <g>
        <path class="cls-11" d="M260.750918859400372,574.729886002311105s.21160888671875.44091796875.578857421875,1.9083251953125"/>
        <path class="cls-4" d="M262.139071935572247,580.472683853873605c1.27801513671875,6.9500732421875,3.260101318359375,21.81591796875,5.173065185546875,52.68603515625"/>
        <path class="cls-11" d="M267.432712072290997,635.127469010123605c.03985595703125.6585693359375.079681396484375,1.3240966796875.119476318359375,1.996826171875"/>
      </g>
      <g>
        <path class="cls-11" d="M263.707980626978497,574.729886002311105s.211639404296875.44091796875.578887939453125,1.9083251953125"/>
        <path class="cls-4" d="M265.096164220728497,580.472683853873605c1.27801513671875,6.9500732421875,3.26007080078125,21.81591796875,5.17303466796875,52.68603515625"/>
        <path class="cls-11" d="M270.389804357447247,635.127469010123605c.03985595703125.6585693359375.079681396484375,1.3240966796875.119476318359375,1.996826171875"/>
      </g>
      <g>
        <path class="cls-11" d="M528.662143224634747,574.729886002311105s-.21160888671875.44091796875-.578857421875,1.9083251953125"/>
        <path class="cls-4" d="M527.274020666040997,580.472683853873605c-1.27801513671875,6.9500732421875-3.2601318359375,21.81591796875-5.173095703125,52.68603515625"/>
        <path class="cls-11" d="M521.980380529322247,635.127469010123605c-.03985595703125.6585693359375-.0797119140625,1.3240966796875-.1195068359375,1.996826171875"/>
      </g>
      <g>
        <path class="cls-11" d="M525.705111974634747,574.729886002311105s-.211669921875.44091796875-.57891845703125,1.9083251953125"/>
        <path class="cls-4" d="M524.316928380884747,580.472683853873605c-1.27801513671875,6.9500732421875-3.26007080078125,21.81591796875-5.17303466796875,52.68603515625"/>
        <path class="cls-11" d="M519.023288244165997,635.127469010123605c-.03985595703125.6585693359375-.0797119140625,1.3240966796875-.1195068359375,1.996826171875"/>
      </g>
      <line class="cls-10" x1="403.824106741209107" y1="165.795237293470564" x2="403.824106741209107" y2="1.639524966371027"/>
      <path class="cls-10" d="M259.352118675149541,163.345870073140759c.869112544429299,1.056289574538823,2.861518537189113,2.721813256550377,6.784625218710062,2.721813256550377h275.463700074928056s2.039269323340704-.724697343410298,3.21341770529034-2.070878399481444"/>
      <path class="cls-10" d="M286.058366530540297,180.321045813579985c0,11.710196340869516,56.177159160579322,35.336401812270196,119.204321728799187,35.336401812270196,63.027162568208951,0,116.383755759730775-24.044124485018983,116.383755759730775-35.754320825890318"/>
      <g>
        <path class="cls-11" d="M283.078952306665997,182.125149674186105c0,.60919189453125.1558837890625,1.25445556640625.46051025390625,1.93035888671875"/>
        <path class="cls-13" d="M285.841403478540997,187.235012955436105c12.202362060546875,12.6368408203125,63.164947509765625,31.6298828125,119.45697021484375,31.6298828125,58.52471923828125,0,108.9168701171875-21.03680419921875,117.904296875-33.70489501953125"/>
        <path class="cls-11" d="M524.187228673853497,183.443692154654855c.29034423828125-.6796875.43865966796875-1.3272705078125.43865966796875-1.93701171875"/>
      </g>
      <path class="cls-10" d="M516.894067102630288,174.92444622082985s-57.158092308871346,10.664972127780857-118.130070565401184,40.421289293230075"/>
      <path class="cls-10" d="M288.774081070119792,174.924587395520575s25.306951668999318,6.544566485270479,36.963218821309056,8.032600589820504c11.656267152309738,1.488034104539111,22.66272839766134.579789394068939,71.767853847821243,27.116397591889836"/>
      <path class="cls-10" d="M389.44903799604981,215.068377338000573s35.40215604676996-23.801264373651065,51.069028643629281-28.989971364640951c15.666872596881149-5.188706990978972,67.423505282920814-16.084991672059914,69.661629939619161-19.457651216198428"/>
      <path class="cls-10" d="M407.225962371348942,202.413117648100524s-34.970697760849362-21.293698649440557-47.839914536849392-23.111453412200717c-12.869216775990935-1.817754762769255-49.518508029359509-8.569415310150362-57.631709909870551-13.243641842949728"/>
      <line class="cls-10" x1="185.923283426020134" y1="325.73247549243024" x2="226.118811040460059" y2="349.157683638590242"/>
      <g>
        <line class="cls-11" x1="187.627871984400372" y1="322.306424088248605" x2="189.355838292994122" y2="323.313504166373605"/>
        <line class="cls-1" x1="192.695804113306622" y1="325.259915299186105" x2="224.425448888697247" y2="343.751370377311105"/>
        <line class="cls-11" x1="226.095401281275372" y1="344.724636978873605" x2="227.823398107447247" y2="345.731594986686105"/>
      </g>
      <g>
        <line class="cls-11" x1="183.957156652369122" y1="329.453885025748605" x2="185.685122960962872" y2="330.460965103873605"/>
        <line class="cls-1" x1="189.025088781275372" y1="332.407376236686105" x2="220.754703039087872" y2="350.898831314811105"/>
        <line class="cls-11" x1="222.424685949244122" y1="351.872097916373605" x2="224.152682775415997" y2="352.879055924186105"/>
      </g>
      <line class="cls-10" x1="573.919207414010089" y1="352.860605649881109" x2="629.173099663677931" y2="325.269607749351053"/>
      <g>
        <line class="cls-11" x1="572.589389318384747" y1="349.482693619498605" x2="574.378695959009747" y2="348.589261002311105"/>
        <line class="cls-6" x1="577.823703283228497" y1="346.868924088248605" x2="624.331454748072247" y2="323.645413346061105"/>
        <line class="cls-11" x1="626.053927892603497" y1="322.785305924186105" x2="627.843295568384747" y2="321.891751236686105"/>
      </g>
      <g>
        <line class="cls-11" x1="576.486606115259747" y1="355.743435806998605" x2="578.275912755884747" y2="354.850003189811105"/>
        <line class="cls-6" x1="581.720920080103497" y1="353.129666275748605" x2="628.228671544947247" y2="329.906033463248605"/>
        <line class="cls-11" x1="629.951144689478497" y1="329.045926041373605" x2="631.740451330103497" y2="328.152493424186105"/>
      </g>
      <path class="cls-10" d="M261.299150343878864,155.148591588509589c89.998814653359659-5.059733680318459,183.230317234159884-6.118086759819562,282.257600881321196,0"/>
      <g>
        <path class="cls-11" d="M317.804141515650372,466.227444596061105s-.040740966796875.6986083984375-.153594970703125,1.9896240234375"/>
        <path class="cls-3" d="M317.260562414087872,472.085598892936105c-2.1810302734375,19.3553466796875-12.333953857421875,81.375244140625-54.3218994140625,105.221435546875"/>
        <path class="cls-11" d="M261.227054113306622,578.248318619498605c-.58740234375.3126220703125-1.180877685546875.617919921875-1.780426025390625.91552734375"/>
      </g>
      <g>
        <path class="cls-11" d="M320.589511388697247,466.227444596061105s-.032562255859375.6988525390625-.131195068359375,1.99072265625"/>
        <path class="cls-14" d="M320.100650304712872,472.178616471061105c-2.0267333984375,19.7384033203125-11.880706787109375,83.14599609375-55.99432373046875,107.0247802734375"/>
        <path class="cls-11" d="M262.336093419947247,580.130886978873605c-.593414306640625.3006591796875-1.19287109375.5943603515625-1.798370361328125.8807373046875"/>
      </g>
      <g>
        <path class="cls-11" d="M472.295138830103497,466.227444596061105s.04071044921875.6986083984375.153564453125,1.9896240234375"/>
        <path class="cls-3" d="M472.838717931665997,472.085598892936105c2.1810302734375,19.3553466796875,12.33392333984375,81.375244140625,54.3218994140625,105.221435546875"/>
        <path class="cls-11" d="M528.872226232447247,578.248318619498605c.58740234375.3126220703125,1.18084716796875.617919921875,1.7803955078125.91552734375"/>
      </g>
      <g>
        <path class="cls-11" d="M469.509738439478497,466.227444596061105s.0325927734375.6988525390625.1312255859375,1.99072265625"/>
        <path class="cls-14" d="M469.998630041040997,472.178616471061105c2.0267333984375,19.7384033203125,11.88067626953125,83.14599609375,55.99432373046875,107.0247802734375"/>
        <path class="cls-11" d="M527.763156408228497,580.130886978873605c.59344482421875.3006591796875,1.19287109375.5943603515625,1.79840087890625.8807373046875"/>
      </g>
      <line class="cls-12" x1="313.992402451818634" y1="468.847117114290086" x2="475.112363900478158" y2="468.847117114290086"/>
      <line class="cls-12" x1="313.992402451818634" y1="471.998607802750485" x2="475.112363900478158" y2="471.998607802750485"/>
    </g>
  </g>
</svg>