<?xml version="1.0" encoding="UTF-8"?>
<svg id="Layer_2" data-name="Layer 2" xmlns="http://www.w3.org/2000/svg" viewBox="0 0 761.478322541691341 962.066198259335579">
  <defs>
    <style>
      .cls-1 {
        stroke-width: 0px;
      }

      .cls-1, .cls-2, .cls-3, .cls-4, .cls-5 {
        fill: none;
      }

      .cls-6 {
        fill: #cbcbcb;
      }

      .cls-6, .cls-2, .cls-3, .cls-4, .cls-5 {
        stroke: #000;
        stroke-miterlimit: 10;
      }

      .cls-6, .cls-3 {
        stroke-width: 2px;
      }

      .cls-2 {
        stroke-dasharray: 0 0 4.021203994750977 4.021203994750977;
      }

      .cls-5 {
        stroke-dasharray: 0 4;
      }
    </style>
  </defs>
  <g id="Layer_1-2" data-name="Layer 1">
    <rect class="cls-1" width="761.478322541691341" height="961.066198259326484"/>
    <g>
      <path class="cls-6" d="M178.107920403934259,82.893825689313417s-8.522772358672228,3.933587242002432-5.572581927361171,14.423153221811845c0,0-46.485802570980013,57.992514039218804-56.826880707449163,249.772508409809234-10.34107813645096,191.779994370601344-31.997990531621326,504.910364204641155,24.984976374598773,606.183030084552229,0,0-1.515789072629559,7.793680849190423,1.956490424510775,7.793680849350494,3.472279497140335.000000000149157,100.262070479850081.000000004489266,100.262070479850081.000000004489266,0,0,4.505262701470201-1.660496697859344,2.616905678160037-7.793680849139491,0,0,30.471739432989125-43.788589081232203,43.344858074469812-223.704393979862289,13.827275728359382-156.909520141220128,28.828664742150067-316.223783886140154,35.441709652939608-329.449873706242215v-.000000004936737c6.613044910200188,13.226089820378547,20.440320631510986,172.540353565938858,34.267596352819965,329.449873707777442,12.873118633409831,179.915804899201248,43.344858064419896,223.704393981812245,43.344858064419896,223.704393981812245-1.888357023590288,6.133184151181922,2.616905677810792,7.793680849252269,2.616905677810792,7.793680849252269h100.262070479859176c3.472279497140335,0,1.956490424860021-7.793680849252269,1.956490424860021-7.793680849252269,56.982966910771211-101.272665877349937,35.326054529659814-414.403035712382916,24.984976401799941-606.183030083431731-10.341078127839864-191.779994371048815-56.826880696218723-249.772508412359457-56.826880696218723-249.772508412359457,2.950190431780356-10.489565979678446-5.572581926709972-14.423153222059227-5.572581926709972-14.423153222059227,0,0-59.58333265165129,17.662292676538527-142.438540706949425,17.662292676538527-82.855208055301773,0-148.802442121410422-17.662292678110134-148.802442121410422-17.662292678110134Z"/>
      <path class="cls-3" d="M482.558997668642405,111.378861816394419s3.684306303301128,53.490630232299736,35.259793372111744,113.327606424369151"/>
      <path class="cls-5" d="M478.919725680943884,103.105393409763565s-.845656268780658,64.373546169070323,40.433610596430299,128.66625489433136"/>
      <path class="cls-3" d="M164.897825966343589,111.378861813884214s-3.590038197091417,53.490630232281546-35.165525268210331,113.327606422710232"/>
      <path class="cls-5" d="M168.537097954373166,103.105393407424344s-1.36189348256994,70.511727117911505-40.339342492859942,128.666254892421421"/>
      <line class="cls-5" x1="140.693434143722698" y1="953.272517405486724" x2="245.528900726243592" y2="953.272517410186992"/>
      <path class="cls-3" d="M324.315468453653011,400.118249719145751s-1.506102926960011-95.74549030029084-.746620304380485-134.668974707161397c.759482622570431-38.923484406888747,3.797413112872164-102.383719733559701,3.227801145931153-133.332636603408901"/>
      <path class="cls-3" d="M469.348903232294106,82.893825690885024s-72.529458910290487,30.373034821380315-142.203156593150197,30.373034821380315c-69.673697682870625,0-149.03782623520965-30.373034822951922-149.03782623520965-30.373034822951922"/>
      <path class="cls-3" d="M474.921485159004078,97.316978912944251s-46.453603591800857,34.379950623930199-147.424710007409885,34.379950623930199c-100.971106415599934,0-154.961436675021105-34.379950625749188-154.961436675021105-34.379950625749188"/>
      <g>
        <path class="cls-4" d="M474.921557722494981,101.532590026547041s-.546142578125.404136657714844-1.6484375,1.124778747558594"/>
        <path class="cls-2" d="M469.856372175619981,104.77177917449626c-14.510498046875,8.562065124511719-60.5330810546875,31.140762329101562-142.359619140625,31.140762329101562-86.1396484375,0-138.086669921875-25.021728515625-151.4888916015625-32.372512817382812"/>
        <path class="cls-4" d="M174.250171003744981,102.554013366390791c-1.140625-.655815124511719-1.71484375-1.02142333984375-1.71484375-1.02142333984375"/>
      </g>
      <line class="cls-5" x1="506.76338945342286" y1="953.272517408735439" x2="401.927922870892871" y2="953.272517408735439"/>
    </g>
  </g>
</svg>